<svg width="30" height="30" viewBox="0 0 30 30" fill="none" xmlns="http://www.w3.org/2000/svg">
<rect width="30" height="30" rx="4" fill="#EBEEF3"/>
<g clip-path="url(#clip0_53_2189)">
<path d="M15 11.6663C15.9167 11.6663 16.6667 10.9163 16.6667 9.99967C16.6667 9.08301 15.9167 8.33301 15 8.33301C14.0833 8.33301 13.3333 9.08301 13.3333 9.99967C13.3333 10.9163 14.0833 11.6663 15 11.6663ZM15 13.333C14.0833 13.333 13.3333 14.083 13.3333 14.9997C13.3333 15.9163 14.0833 16.6663 15 16.6663C15.9167 16.6663 16.6667 15.9163 16.6667 14.9997C16.6667 14.083 15.9167 13.333 15 13.333ZM15 18.333C14.0833 18.333 13.3333 19.083 13.3333 19.9997C13.3333 20.9163 14.0833 21.6663 15 21.6663C15.9167 21.6663 16.6667 20.9163 16.6667 19.9997C16.6667 19.083 15.9167 18.333 15 18.333Z" fill="#323232"/>
</g>
<defs>
<clipPath id="clip0_53_2189">
<rect width="20" height="20" fill="white" transform="translate(5 5)"/>
</clipPath>
</defs>
</svg>
